<svg xmlns="http://www.w3.org/2000/svg" xmlns:xlink="http://www.w3.org/1999/xlink" viewBox="0 0 24 24" version="1.1">
<g id="surface1">
<path style=" " d="M 8 5 C 6.898438 5 6.230469 5.6875 6 7 L 4 18 C 4 19.101563 4.898438 20 6 20 L 18 20 C 19.101563 20 19.855469 19.25 20 18 L 22 7 C 22 5.898438 21.101563 5 20 5 Z M 2 7 L 2 9 L 4.625 9 L 4.96875 7 Z M 7.625 9 L 19.625 9 L 18 18 L 6 18 Z M 9.1875 10 L 9.03125 10.8125 L 8.03125 15.8125 L 7.78125 17 L 16.8125 17 L 16.96875 16.1875 L 17.96875 11.1875 L 18.21875 10 Z M 2 11 L 2 13 L 3.90625 13 L 4.25 11 Z M 10.8125 12 L 15.78125 12 L 15.1875 15 L 10.21875 15 Z M 2 15 L 2 17 L 3.15625 17 L 3.53125 15 Z "></path>
</g>
</svg>