<?xml version="1.0" encoding="UTF-8" ?>
<!DOCTYPE svg PUBLIC "-//W3C//DTD SVG 1.1//EN" "http://www.w3.org/Graphics/SVG/1.1/DTD/svg11.dtd">
<svg width="96pt" height="96pt" viewBox="0 0 96 96" version="1.1" xmlns="http://www.w3.org/2000/svg">
<path d=" M 24.77 11.94 C 28.66 9.15 33.68 7.87 38.07 5.80 C 41.38 7.36 42.45 11.74 45.05 14.29 C 47.17 13.96 49.59 14.67 51.52 13.68 C 53.42 10.98 55.05 8.10 57.01 5.44 C 61.91 6.92 66.60 8.98 71.31 10.98 C 71.10 13.92 70.36 16.78 70.01 19.70 L 69.62 20.10 C 69.39 19.82 68.94 19.28 68.71 19.01 L 68.61 18.39 C 68.99 16.26 69.50 14.15 70.04 12.06 C 69.03 11.59 68.02 11.15 67.00 10.72 C 63.84 9.57 60.77 7.61 57.47 7.18 C 55.66 9.51 54.18 12.07 52.76 14.64 C 52.48 14.93 51.90 15.52 51.62 15.81 C 49.15 15.91 46.67 15.89 44.20 15.92 C 42.21 13.07 40.24 10.20 38.19 7.38 C 34.20 9.09 30.19 10.78 26.21 12.54 C 26.82 15.92 28.28 19.28 28.10 22.74 C 26.48 24.63 24.62 26.30 22.93 28.13 C 19.50 27.82 16.08 26.44 12.69 26.56 C 10.95 30.31 9.57 34.22 7.99 38.05 C 8.26 38.35 8.81 38.96 9.09 39.27 C 11.47 40.89 13.93 42.38 16.28 44.05 C 16.32 46.61 16.45 49.17 16.59 51.72 C 13.79 53.74 10.93 55.68 8.09 57.64 C 9.87 61.54 11.56 65.49 13.24 69.44 C 16.94 68.39 21.25 68.66 24.39 66.18 C 24.89 65.75 25.89 64.89 26.39 64.46 C 28.18 62.76 29.98 61.07 31.81 59.40 C 28.15 54.37 27.92 48.05 27.49 42.09 C 30.09 39.37 31.30 35.62 34.07 33.05 C 38.57 28.49 45.28 26.33 51.60 27.45 C 55.88 28.53 59.28 24.95 63.12 23.72 C 64.83 22.94 66.47 22.02 68.00 20.91 C 72.76 20.92 76.43 17.21 80.79 15.69 C 82.07 14.60 84.02 16.32 82.89 17.74 C 80.74 20.39 78.17 22.66 76.02 25.31 C 78.95 24.96 81.77 23.94 84.73 23.89 C 86.62 28.58 88.97 33.10 90.55 37.91 C 87.81 40.05 84.61 41.65 82.06 43.97 C 81.92 46.04 82.01 48.12 82.00 50.19 C 84.96 52.12 88.01 53.91 90.84 56.04 C 89.01 60.81 87.34 65.69 84.99 70.23 C 81.48 69.72 78.00 69.01 74.51 68.38 C 73.08 69.87 71.62 71.35 70.15 72.81 C 70.98 76.25 71.74 79.70 72.33 83.18 C 67.68 85.29 62.97 87.88 58.05 89.00 C 55.73 86.39 54.11 83.23 51.88 80.54 C 49.93 80.64 47.98 80.68 46.02 80.63 C 43.77 83.35 42.09 86.48 40.03 89.35 C 35.05 88.14 30.43 85.80 25.67 83.95 C 25.86 80.77 26.53 77.66 27.28 74.57 C 26.64 73.99 26.01 73.40 25.40 72.80 C 32.99 69.74 40.60 66.58 47.86 62.80 L 48.57 62.44 C 49.27 62.99 49.96 63.55 50.65 64.10 C 48.73 64.27 46.89 64.74 45.11 65.50 C 52.59 68.06 60.87 63.55 64.81 57.09 C 63.05 57.86 61.31 58.69 59.61 59.58 C 59.76 59.04 60.08 57.97 60.23 57.43 C 63.93 56.19 67.47 54.53 70.98 52.84 C 69.26 51.76 67.49 50.76 65.69 49.84 L 65.58 49.76 C 64.99 48.61 64.06 48.00 62.76 47.94 L 62.73 47.92 C 60.88 46.61 59.05 45.28 57.21 43.96 C 63.12 36.53 70.34 30.26 76.20 22.78 C 76.34 22.64 76.63 22.36 76.78 22.22 C 78.89 20.66 80.65 18.70 82.18 16.58 C 80.46 17.16 78.69 17.74 77.25 18.89 C 77.15 18.97 76.95 19.11 76.85 19.19 C 64.19 24.81 51.98 31.42 39.50 37.45 C 36.02 39.22 32.41 40.75 29.13 42.89 C 29.55 43.10 30.38 43.53 30.80 43.74 L 31.74 44.22 C 32.61 45.04 34.35 46.68 35.21 47.50 C 33.85 46.85 31.12 45.54 29.75 44.89 C 29.38 49.98 30.27 55.42 33.87 59.29 C 30.46 64.52 24.43 67.46 20.64 72.46 C 20.56 72.51 20.42 72.63 20.34 72.69 C 18.45 73.96 16.60 75.36 15.33 77.29 C 17.16 76.89 18.93 76.22 20.44 75.09 C 21.10 74.66 21.77 74.25 22.46 73.86 L 25.47 73.09 C 25.28 73.72 24.90 74.98 24.71 75.61 C 21.21 74.43 17.56 80.02 14.20 77.76 C 14.23 77.40 14.28 76.69 14.31 76.34 C 16.71 73.83 19.53 71.76 21.92 69.24 C 18.67 69.75 15.52 70.93 12.21 70.98 C 10.32 66.30 8.01 61.79 6.41 57.00 C 9.20 54.93 12.12 53.02 14.99 51.06 C 15.00 48.96 15.00 46.87 15.03 44.77 C 12.09 42.79 9.03 40.97 6.13 38.93 C 7.80 34.11 9.71 29.36 11.82 24.70 C 15.33 25.00 18.72 26.01 22.21 26.35 C 24.03 25.31 25.24 23.46 26.78 22.06 C 26.10 18.69 25.07 15.37 24.77 11.94 Z" />
<path d=" M 57.47 7.18 C 60.77 7.61 63.84 9.57 67.00 10.72 L 66.06 10.54 C 67.34 13.00 68.07 15.69 68.61 18.39 L 68.71 19.01 C 68.53 19.49 68.17 20.44 68.00 20.91 C 66.47 22.02 64.83 22.94 63.12 23.72 C 58.43 22.61 53.94 20.42 49.05 20.36 C 38.44 20.17 28.01 26.68 23.81 36.48 C 22.06 41.49 20.49 46.94 21.97 52.24 C 22.82 56.53 24.92 60.38 26.39 64.46 C 25.89 64.89 24.89 65.75 24.39 66.18 C 20.94 67.10 17.44 67.83 13.93 68.48 C 12.10 65.08 10.66 61.49 9.25 57.90 C 11.52 55.73 15.50 54.84 16.59 51.72 C 16.45 49.17 16.32 46.61 16.28 44.05 C 13.93 42.38 11.47 40.89 9.09 39.27 C 9.67 35.24 11.29 31.44 13.12 27.84 C 16.48 26.85 20.14 29.40 23.63 28.50 C 25.72 26.77 27.43 24.64 29.32 22.70 C 28.59 19.47 27.84 16.24 27.41 12.94 C 30.90 11.59 34.20 9.27 37.94 8.83 C 40.20 11.06 41.65 13.93 43.47 16.49 C 46.43 16.63 49.39 16.74 52.35 16.49 C 52.45 16.02 52.66 15.10 52.76 14.64 C 54.18 12.07 55.66 9.51 57.47 7.18 Z" />
<path d=" M 66.06 10.54 L 67.00 10.72 C 68.02 11.15 69.03 11.59 70.04 12.06 C 69.50 14.15 68.99 16.26 68.61 18.39 C 68.07 15.69 67.34 13.00 66.06 10.54 Z" />
<path d=" M 77.25 18.89 C 78.69 17.74 80.46 17.16 82.18 16.58 C 80.65 18.70 78.89 20.66 76.78 22.22 C 76.80 21.46 76.83 19.95 76.85 19.19 C 76.95 19.11 77.15 18.97 77.25 18.89 Z" />
<path d=" M 39.50 37.45 C 51.98 31.42 64.19 24.81 76.85 19.19 C 75.61 20.48 74.18 21.58 72.53 22.30 C 60.18 28.16 48.14 34.67 35.79 40.54 C 33.97 41.34 32.38 42.54 30.80 43.74 C 30.38 43.53 29.55 43.10 29.13 42.89 C 32.41 40.75 36.02 39.22 39.50 37.45 Z" />
<path d=" M 76.85 19.19 C 76.83 19.95 76.80 21.46 76.78 22.22 C 76.63 22.36 76.34 22.64 76.20 22.78 C 75.61 22.91 74.43 23.17 73.84 23.30 C 74.29 24.93 72.87 25.97 72.00 27.05 C 67.05 32.31 62.01 37.50 57.33 42.98 C 56.53 45.98 60.90 46.61 62.73 47.92 L 62.76 47.94 C 63.09 49.48 64.02 50.08 65.58 49.76 L 65.69 49.84 C 66.20 50.30 67.23 51.22 67.75 51.69 C 56.93 50.27 46.58 46.49 35.89 44.41 C 35.22 44.48 33.87 44.63 33.20 44.70 C 32.84 44.58 32.11 44.34 31.74 44.22 L 30.80 43.74 C 32.38 42.54 33.97 41.34 35.79 40.54 C 48.14 34.67 60.18 28.16 72.53 22.30 C 74.18 21.58 75.61 20.48 76.85 19.19 Z" />
<path d=" M 24.06 38.21 C 27.19 29.64 35.13 23.14 44.10 21.64 C 49.04 21.02 54.22 21.32 58.81 23.37 C 59.63 25.70 56.23 26.00 54.75 26.82 C 49.53 26.41 43.98 25.79 39.19 28.44 C 33.12 31.06 29.81 37.16 26.70 42.52 C 27.39 48.21 27.24 54.31 30.74 59.20 C 29.82 60.17 28.97 61.22 27.84 61.96 C 26.31 62.16 25.88 60.50 25.28 59.47 C 21.95 52.95 21.42 45.05 24.06 38.21 Z" />
<path d=" M 76.20 22.78 C 76.34 22.64 76.63 22.36 76.78 22.22 C 76.63 22.36 76.34 22.64 76.20 22.78 Z" />
<path d=" M 74.64 27.87 C 77.93 27.39 81.27 26.48 84.60 27.17 L 84.73 27.18 C 86.06 30.57 87.50 33.91 89.10 37.17 C 86.24 39.26 83.43 41.49 80.25 43.08 L 79.21 43.58 C 78.92 45.85 78.95 48.15 79.32 50.41 L 80.41 50.95 C 81.81 51.59 83.10 52.44 84.34 53.35 L 84.42 53.60 C 84.51 53.85 84.68 54.34 84.76 54.59 C 85.76 55.43 86.81 56.21 87.85 57.00 C 86.67 60.54 85.24 63.98 83.90 67.46 C 80.49 67.18 77.14 66.23 73.69 66.35 L 73.29 67.08 C 72.53 68.91 71.00 70.21 69.58 71.53 L 68.77 71.48 C 68.51 71.47 68.00 71.44 67.74 71.42 C 68.09 74.99 69.14 78.44 69.55 81.99 C 66.10 83.33 62.83 85.44 59.11 85.92 C 56.62 84.12 55.42 80.92 53.55 78.48 C 50.50 78.17 47.43 78.18 44.38 78.48 C 42.58 81.08 41.10 83.94 38.95 86.29 C 35.24 85.90 31.87 83.84 28.48 82.35 C 28.46 80.37 28.36 78.39 28.20 76.42 C 28.10 75.32 28.81 74.35 29.16 73.35 C 30.66 72.76 32.15 72.14 33.64 71.50 C 38.62 73.23 43.67 75.32 49.02 75.30 C 55.56 74.82 62.15 72.53 66.99 67.99 C 73.47 62.35 76.74 53.47 76.25 44.99 C 76.06 39.67 71.79 35.17 72.85 29.75 C 73.15 28.85 73.75 28.23 74.64 27.87 Z" />
<path d=" M 65.91 37.02 C 68.16 34.54 70.42 32.07 72.85 29.75 C 71.79 35.17 76.06 39.67 76.25 44.99 C 76.74 53.47 73.47 62.35 66.99 67.99 C 62.15 72.53 55.56 74.82 49.02 75.30 C 43.67 75.32 38.62 73.23 33.64 71.50 C 37.00 69.93 40.42 68.48 43.85 67.06 C 51.90 69.34 61.06 65.55 65.47 58.50 C 66.99 55.52 71.47 56.18 72.79 53.07 C 72.45 51.13 70.59 50.44 69.10 49.56 C 68.61 45.26 68.21 40.81 65.91 37.02 Z" />
<path d=" M 67.46 36.95 C 68.39 35.78 69.42 34.69 70.72 33.93 C 73.68 39.24 74.91 45.42 74.01 51.46 C 72.73 50.58 71.46 49.70 70.20 48.80 C 70.04 44.71 69.07 40.71 67.46 36.95 Z" />
<path d=" M 79.21 43.58 L 80.25 43.08 C 80.41 45.70 80.46 48.33 80.41 50.95 L 79.32 50.41 C 78.95 48.15 78.92 45.85 79.21 43.58 Z" />
<path d=" M 33.20 44.70 C 33.87 44.63 35.22 44.48 35.89 44.41 C 46.58 46.49 56.93 50.27 67.75 51.69 C 68.29 51.99 69.38 52.59 69.92 52.88 C 65.80 54.70 61.64 56.44 57.58 58.40 L 56.61 58.87 C 53.85 59.86 51.16 61.06 48.57 62.44 L 47.86 62.80 C 39.28 66.20 30.85 70.04 22.46 73.86 C 21.77 74.25 21.10 74.66 20.44 75.09 C 20.42 74.49 20.37 73.29 20.34 72.69 C 20.42 72.63 20.56 72.51 20.64 72.46 C 28.07 66.71 34.86 60.09 41.70 53.64 L 41.39 50.56 C 41.85 51.29 42.78 52.73 43.24 53.46 C 43.05 52.77 42.67 51.39 42.48 50.70 C 39.28 48.87 36.19 46.85 33.20 44.70 Z" />
<path d=" M 62.76 47.94 C 64.06 48.00 64.99 48.61 65.58 49.76 C 64.02 50.08 63.09 49.48 62.76 47.94 Z" />
<path d=" M 33.87 59.29 C 35.35 55.65 39.22 53.76 41.39 50.56 L 41.70 53.64 C 34.86 60.09 28.07 66.71 20.64 72.46 C 24.43 67.46 30.46 64.52 33.87 59.29 Z" />
<path d=" M 66.35 59.39 C 67.77 57.03 70.58 56.39 73.03 55.64 C 70.12 64.40 62.22 71.32 53.09 72.84 C 48.09 73.46 42.81 73.30 38.20 71.06 C 42.37 66.84 48.27 70.06 53.25 68.42 C 58.64 67.34 63.23 63.83 66.35 59.39 Z" />
<path d=" M 56.61 58.87 L 57.58 58.40 C 58.27 58.97 58.96 59.54 59.65 60.12 C 56.34 60.32 53.51 62.17 50.66 63.66 C 50.79 63.08 51.06 61.92 51.19 61.34 C 53.06 60.67 54.88 59.86 56.61 58.87 Z" />
<path d=" M 15.33 77.29 C 16.60 75.36 18.45 73.96 20.34 72.69 C 20.37 73.29 20.42 74.49 20.44 75.09 C 18.93 76.22 17.16 76.89 15.33 77.29 Z" />
</svg>
